<?xml version="1.0" encoding="UTF-8" standalone="no"?>
<svg
   id="Group_222"
   data-name="Group 222"
   width="24.738"
   height="43.032"
   viewBox="0 0 24.738 43.032"
   version="1.1"
   sodipodi:docname="que_icon.svg"
   inkscape:version="1.2.2 (b0a8486541, 2022-12-01)"
   xmlns:inkscape="http://www.inkscape.org/namespaces/inkscape"
   xmlns:sodipodi="http://sodipodi.sourceforge.net/DTD/sodipodi-0.dtd"
   xmlns="http://www.w3.org/2000/svg"
   xmlns:svg="http://www.w3.org/2000/svg">
  <defs
     id="defs58" />
  <sodipodi:namedview
     id="namedview56"
     pagecolor="#505050"
     bordercolor="#eeeeee"
     borderopacity="1"
     inkscape:showpageshadow="0"
     inkscape:pageopacity="0"
     inkscape:pagecheckerboard="0"
     inkscape:deskcolor="#505050"
     showgrid="false"
     inkscape:zoom="6.0907053"
     inkscape:cx="-3.4478766"
     inkscape:cy="26.269536"
     inkscape:window-width="757"
     inkscape:window-height="572"
     inkscape:window-x="297"
     inkscape:window-y="102"
     inkscape:window-maximized="0"
     inkscape:current-layer="Group_222" />
  <path
     id="Path_26"
     data-name="Path 26"
     d="m 16.8,25.309 c 1.744,-3.148 5.1,-5.005 7.044,-7.791 2.061,-2.922 0.906,-8.38 -4.937,-8.38 -3.828,0 -5.707,2.9 -6.5,5.3 L 6.54,11.969 A 12.818,12.818 0 0 1 18.884,3 c 5.322,0 8.969,2.423 10.826,5.458 1.585,2.6 2.514,7.474 0.068,11.1 -2.718,4.009 -5.322,5.232 -6.727,7.814 -0.566,1.042 -0.793,1.721 -0.793,5.073 H 15.713 C 15.69,30.677 15.418,27.8 16.8,25.309 Z M 23.436,41.5 a 4.53,4.53 0 1 1 -4.53,-4.53 4.543,4.543 0 0 1 4.53,4.53 z"
     transform="translate(-6.54,-3)"
     fill="#6563ff"
     style="display:inline;fill:#ff2222;fill-opacity:1"
     inkscape:label="Path_26" />
  <g
     inkscape:groupmode="layer"
     id="layer1"
     inkscape:label="Layer 1" />
</svg>
